<svg width="12" height="12" viewBox="0 0 12 12" fill="none" xmlns="http://www.w3.org/2000/svg">
<path d="M3.38701 0.46586C3.38701 0.20872 3.18212 0 2.92912 0H0.458354C0.204895 0 0 0.20825 0 0.46586V2.97708C0 3.23375 0.204895 3.44247 0.458354 3.44247H2.92912C3.18212 3.44247 3.38701 3.23375 3.38701 2.97708V0.46586Z" fill="black"/>
<path d="M7.64541 0.46586C7.64541 0.20872 7.44051 0 7.18705 0H4.71583C4.46329 0 4.25793 0.20825 4.25793 0.46586V2.97708C4.25793 3.23375 4.46329 3.44247 4.71583 3.44247H7.18705C7.44051 3.44247 7.64541 3.23375 7.64541 2.97708V0.46586Z" fill="black"/>
<path d="M12 0.46586C12 0.20872 11.7951 0 11.5421 0H9.07133C8.81787 0 8.61298 0.20825 8.61298 0.46586V2.97708C8.61298 3.23375 8.81787 3.44247 9.07133 3.44247H11.5421C11.7951 3.44247 12 3.23375 12 2.97708V0.46586Z" fill="black"/>
<path d="M3.38701 4.6948C3.38701 4.43766 3.18212 4.22941 2.92912 4.22941H0.458354C0.204895 4.22941 0 4.43766 0 4.6948V7.20602C0 7.4641 0.204895 7.67141 0.458354 7.67141H2.92912C3.18212 7.67141 3.38701 7.4641 3.38701 7.20602V4.6948Z" fill="black"/>
<path d="M7.64541 4.6948C7.64541 4.43766 7.44051 4.22941 7.18705 4.22941H4.71583C4.46329 4.22941 4.25793 4.43766 4.25793 4.6948V7.20602C4.25793 7.4641 4.46329 7.67141 4.71583 7.67141H7.18705C7.44051 7.67141 7.64541 7.4641 7.64541 7.20602V4.6948Z" fill="black"/>
<path d="M12 4.6948C12 4.43766 11.7951 4.22941 11.5421 4.22941H9.07133C8.81787 4.22941 8.61298 4.43766 8.61298 4.6948V7.20602C8.61298 7.4641 8.81787 7.67141 9.07133 7.67141H11.5421C11.7951 7.67141 12 7.4641 12 7.20602V4.6948Z" fill="black"/>
<path d="M3.38701 9.02245C3.38701 8.76625 3.18212 8.55706 2.92912 8.55706H0.458354C0.204895 8.55706 0 8.76625 0 9.02245V11.5346C0 11.7918 0.204895 12 0.458354 12H2.92912C3.18212 12 3.38701 11.7918 3.38701 11.5346V9.02245Z" fill="black"/>
<path d="M7.64541 9.02245C7.64541 8.76625 7.44051 8.55706 7.18705 8.55706H4.71583C4.46329 8.55706 4.25793 8.76625 4.25793 9.02245V11.5346C4.25793 11.7918 4.46329 12 4.71583 12H7.18705C7.44051 12 7.64541 11.7918 7.64541 11.5346V9.02245Z" fill="black"/>
<path d="M12 9.02245C12 8.76625 11.7951 8.55706 11.5421 8.55706H9.07133C8.81787 8.55706 8.61298 8.76625 8.61298 9.02245V11.5346C8.61298 11.7918 8.81787 12 9.07133 12H11.5421C11.7951 12 12 11.7918 12 11.5346V9.02245Z" fill="black"/>
</svg>
