<svg width="16" height="16" viewBox="0 0 16 16" fill="none" xmlns="http://www.w3.org/2000/svg">
<path d="M5.71429 1V2H10.2857V1C10.2857 0.447812 10.7964 0 11.4286 0C12.0607 0 12.5714 0.447812 12.5714 1V2H14.2857C15.2321 2 16 2.67156 16 3.5V5H0V3.5C0 2.67156 0.7675 2 1.71429 2H3.42857V1C3.42857 0.447812 3.93929 0 4.57143 0C5.20357 0 5.71429 0.447812 5.71429 1ZM0 6H16V14.5C16 15.3281 15.2321 16 14.2857 16H1.71429C0.7675 16 0 15.3281 0 14.5V6ZM2.85714 8C2.54143 8 2.28571 8.225 2.28571 8.5V11.5C2.28571 11.775 2.54143 12 2.85714 12H6.28571C6.6 12 6.85714 11.775 6.85714 11.5V8.5C6.85714 8.225 6.6 8 6.28571 8H2.85714Z" fill="#767676"/>
</svg>
