<svg width="12" height="11" viewBox="0 0 12 11" fill="none" xmlns="http://www.w3.org/2000/svg">
<path d="M1.5 9.1243C1.5 9.33055 1.66781 9.4993 1.875 9.4993H11.25C11.6648 9.4993 12 9.83445 12 10.2493C12 10.6641 11.6648 10.9993 11.25 10.9993H1.875C0.839531 10.9993 0 10.1602 0 9.1243V1.2493C0 0.835157 0.335859 0.499298 0.75 0.499298C1.16414 0.499298 1.5 0.835157 1.5 1.2493V9.1243ZM8.02969 6.27899C7.73672 6.57195 7.26328 6.57195 6.97031 6.27899L5.625 4.93602L3.52969 7.02899C3.23672 7.32195 2.76328 7.32195 2.47031 7.02899C2.17688 6.73602 2.17688 6.26258 2.47031 5.96961L5.09531 3.34461C5.38828 3.05164 5.86172 3.05164 6.15469 3.34461L7.5 4.68758L9.97031 2.21961C10.2633 1.92617 10.7367 1.92617 11.0297 2.21961C11.3227 2.51258 11.3227 2.98602 11.0297 3.27899L8.02969 6.27899Z" fill="black"/>
</svg>
