<svg width="12" height="11" viewBox="0 0 12 11" fill="none" xmlns="http://www.w3.org/2000/svg">
<path d="M5.97949 0C2.66543 0 0.000586035 2.1825 0.000586035 4.875C0.000586035 6.03797 0.500977 7.10109 1.33582 7.93828C1.04285 9.11883 0.0638673 10.1712 0.0521485 10.1829C-0.000585843 10.2356 -0.0152343 10.3173 0.0169923 10.3876C0.0462657 10.4579 0.111234 10.4993 0.187406 10.4993C1.74014 10.4993 2.88506 9.75492 3.48272 9.29484C4.24748 9.58195 5.10038 9.7493 5.99991 9.7493C9.31397 9.7493 11.9788 7.56656 11.9788 4.89539C11.9788 2.22422 9.29356 0 5.97949 0ZM2.9584 5.625C2.54238 5.625 2.2084 5.29102 2.2084 4.89609C2.2084 4.50117 2.54238 4.14609 2.9584 4.14609C3.37441 4.14609 3.7084 4.48008 3.7084 4.89609C3.7084 5.31211 3.39434 5.625 2.9584 5.625ZM5.97949 5.625C5.56348 5.625 5.25059 5.29102 5.25059 4.89609C5.25059 4.50117 5.58457 4.14609 5.97949 4.14609C6.37441 4.14609 6.7084 4.48008 6.7084 4.89609C6.7084 5.31211 6.39668 5.625 5.97949 5.625ZM8.9584 5.625C8.54238 5.625 8.2084 5.29102 8.2084 4.89609C8.2084 4.50117 8.54238 4.14609 8.9584 4.14609C9.37441 4.14609 9.7084 4.48008 9.7084 4.89609C9.7084 5.31211 9.39434 5.625 8.9584 5.625Z" fill="black"/>
</svg>
