<svg width="12" height="12" viewBox="0 0 12 12" fill="none" xmlns="http://www.w3.org/2000/svg">
<path d="M4.28571 0.749298V1.4993H7.71429V0.749298C7.71429 0.335157 8.09732 -0.000701904 8.57143 -0.000701904C9.04554 -0.000701904 9.42857 0.335157 9.42857 0.749298V1.4993H10.7143C11.4241 1.4993 12 2.00297 12 2.6243V3.7493H0V2.6243C0 2.00297 0.575625 1.4993 1.28571 1.4993H2.57143V0.749298C2.57143 0.335157 2.95446 -0.000701904 3.42857 -0.000701904C3.90268 -0.000701904 4.28571 0.335157 4.28571 0.749298ZM0 4.4993H12V10.8743C12 11.4954 11.4241 11.9993 10.7143 11.9993H1.28571C0.575625 11.9993 0 11.4954 0 10.8743V4.4993ZM8.78839 7.12664C9.06161 6.92742 9.06161 6.57117 8.78839 6.35086C8.56071 6.13289 8.15357 6.13289 7.90179 6.35086L5.35714 8.57977L4.07411 7.47586C3.84643 7.25789 3.43929 7.25789 3.1875 7.47586C2.93839 7.69617 2.93839 8.05242 3.1875 8.25164L4.90179 9.75164C5.15357 9.9907 5.56071 9.9907 5.78839 9.75164L8.78839 7.12664Z" fill="black"/>
</svg>
