<svg width="16" height="14" viewBox="0 0 16 14" fill="none" xmlns="http://www.w3.org/2000/svg">
<path d="M7.76701 4.34432C7.84479 4.33598 7.92257 4.33321 8.00035 4.33321C9.47264 4.33321 10.6671 5.5027 10.6671 6.99999C10.6671 8.47227 9.47264 9.66677 8.00035 9.66677C6.50306 9.66677 5.33357 8.47227 5.33357 6.99999C5.33357 6.92221 5.33635 6.84443 5.34468 6.76664C5.60302 6.89165 5.90304 6.99999 6.22249 6.99999C7.20309 6.99999 8.00035 6.20273 8.00035 5.22213C8.00035 4.90267 7.89201 4.60266 7.76701 4.34432ZM13.3506 3.01648C14.6506 4.22209 15.5201 5.6416 15.9312 6.65831C16.0229 6.87776 16.0229 7.12221 15.9312 7.34167C15.5201 8.33338 14.6506 9.75288 13.3506 10.9835C12.0422 12.2002 10.2449 13.2225 8.00035 13.2225C5.75581 13.2225 3.95851 12.2002 2.65067 10.9835C1.35062 9.75288 0.481691 8.33338 0.0683675 7.34167C-0.0227892 7.12221 -0.0227892 6.87776 0.0683675 6.65831C0.481691 5.6416 1.35062 4.22209 2.65067 3.01648C3.95851 1.80087 5.75581 0.777496 8.00035 0.777496C10.2449 0.777496 12.0422 1.80087 13.3506 3.01648ZM8.00035 2.99981C5.79192 2.99981 4.00018 4.79156 4.00018 6.99999C4.00018 9.20842 5.79192 11.0002 8.00035 11.0002C10.2088 11.0002 12.0005 9.20842 12.0005 6.99999C12.0005 4.79156 10.2088 2.99981 8.00035 2.99981Z" fill="#767676"/>
</svg>
