<svg width="16" height="16" viewBox="0 0 16 16" fill="none" xmlns="http://www.w3.org/2000/svg">
<path d="M2 15.5C2 15.775 1.77344 16 1.5 16H0.5C0.226562 16 0 15.775 0 15.5V1C0 0.445312 0.445312 0 1 0C1.55469 0 2 0.445312 2 1V15.5ZM14.8844 0C14.6855 0 14.4778 0.0421875 14.28 0.132281C12.8522 0.784156 11.7937 1.00541 10.9113 1.00541C9.0375 1.00541 7.94844 0.00978125 5.78937 0.00946875C5.02812 0.00954688 4.1125 0.152094 3 0.492188V11.4453C4 11.1333 4.87094 11.0047 5.65156 11.0047C7.9525 11.0047 9.55469 11.9978 11.8578 11.9978C12.855 11.9978 13.9834 11.8112 15.3297 11.2762C15.7531 11.1219 16 10.7625 16 10.3781V0.960312C16 0.346875 15.4781 0 14.8844 0Z" fill="#767676"/>
</svg>
