<svg width="12" height="12" viewBox="0 0 12 12" fill="none" xmlns="http://www.w3.org/2000/svg">
<path d="M0 2.25C0 1.83586 0.383839 1.5 0.857143 1.5H11.1429C11.617 1.5 12 1.83586 12 2.25C12 2.66484 11.617 3 11.1429 3H0.857143C0.383839 3 0 2.66484 0 2.25ZM0 6C0 5.58516 0.383839 5.25 0.857143 5.25H11.1429C11.617 5.25 12 5.58516 12 6C12 6.41484 11.617 6.75 11.1429 6.75H0.857143C0.383839 6.75 0 6.41484 0 6ZM11.1429 10.5H0.857143C0.383839 10.5 0 10.1648 0 9.75C0 9.33516 0.383839 9 0.857143 9H11.1429C11.617 9 12 9.33516 12 9.75C12 10.1648 11.617 10.5 11.1429 10.5Z" fill="black"/>
</svg>
