<svg width="12" height="12" viewBox="0 0 12 12" fill="none" xmlns="http://www.w3.org/2000/svg">
<path d="M11.9958 5.98828C11.9958 6.41016 11.6833 6.74063 11.3292 6.74063H10.6625L10.6771 10.493C10.6771 10.5586 10.6729 10.6195 10.6667 10.6828V11.0625C10.6667 11.5805 10.2937 12 9.83333 12H9.5C9.47708 12 9.45417 11.9789 9.43125 11.9977C9.40208 11.9789 9.37292 12 9.34375 12H8.16667C7.70625 12 7.33333 11.5805 7.33333 11.0625V9C7.33333 8.58516 7.03542 8.25 6.66667 8.25H5.33333C4.96458 8.25 4.66667 8.58516 4.66667 9V11.0625C4.66667 11.5805 4.29375 12 3.83333 12H2.66875C2.6375 12 2.60625 11.9977 2.575 11.9953C2.55 11.9977 2.525 12 2.5 12H2.16667C1.70646 12 1.33333 11.5805 1.33333 11.0625V8.4375C1.33333 8.41641 1.33396 8.39297 1.33521 8.37188V6.74063H0.667708C0.292083 6.74063 0 6.41016 0 5.98828C0 5.77734 0.0625833 5.58984 0.208542 5.42578L5.55 0.187875C5.69583 0.0234844 5.8625 0 6.00833 0C6.15417 0 6.32083 0.0469687 6.44792 0.164391L11.7667 5.42578C11.9333 5.58984 12.0187 5.77734 11.9958 5.98828Z" fill="black"/>
</svg>
