<svg width="12" height="12" viewBox="0 0 12 12" fill="none" xmlns="http://www.w3.org/2000/svg">
<path d="M6 8.78572C6.72422 8.78572 7.3125 9.45724 7.3125 10.2857C7.3125 11.1142 6.72422 11.7857 6 11.7857C5.27578 11.7857 4.6875 11.1142 4.6875 10.2857C4.6875 9.45724 5.27578 8.78572 6 8.78572ZM6 4.50001C6.72422 4.50001 7.3125 5.17233 7.3125 6.00001C7.3125 6.82768 6.72422 7.50001 6 7.50001C5.27578 7.50001 4.6875 6.82768 4.6875 6.00001C4.6875 5.17233 5.27578 4.50001 6 4.50001ZM6 3.21429C5.27578 3.21429 4.6875 2.54197 4.6875 1.71429C4.6875 0.886614 5.27578 0.214293 6 0.214293C6.72422 0.214293 7.3125 0.886614 7.3125 1.71429C7.3125 2.54197 6.72422 3.21429 6 3.21429Z" fill="black"/>
</svg>
