<svg width="12" height="12" viewBox="0 0 12 12" fill="none" xmlns="http://www.w3.org/2000/svg">
<path d="M7.125 1.125C7.125 1.74633 6.62109 2.25 6 2.25C5.37891 2.25 4.875 1.74633 4.875 1.125C4.875 0.503672 5.37891 0 6 0C6.62109 0 7.125 0.503672 7.125 1.125ZM7.125 10.875C7.125 11.4961 6.62109 12 6 12C5.37891 12 4.875 11.4961 4.875 10.875C4.875 10.2539 5.37891 9.75 6 9.75C6.62109 9.75 7.125 10.2539 7.125 10.875ZM0 6C0 5.37891 0.503672 4.875 1.125 4.875C1.74633 4.875 2.25 5.37891 2.25 6C2.25 6.62109 1.74633 7.125 1.125 7.125C0.503672 7.125 0 6.62109 0 6ZM12 6C12 6.62109 11.4961 7.125 10.875 7.125C10.2539 7.125 9.75 6.62109 9.75 6C9.75 5.37891 10.2539 4.875 10.875 4.875C11.4961 4.875 12 5.37891 12 6ZM1.75734 10.2422C1.31789 9.80391 1.31789 9.09141 1.75734 8.65078C2.1968 8.2125 2.90859 8.2125 3.34922 8.65078C3.7875 9.09141 3.7875 9.80391 3.34922 10.2422C2.90859 10.6828 2.1968 10.6828 1.75734 10.2422ZM3.34922 3.34922C2.90859 3.7875 2.1968 3.7875 1.75734 3.34922C1.31813 2.90859 1.31813 2.1968 1.75734 1.75734C2.1968 1.31789 2.90859 1.31789 3.34922 1.75734C3.7875 2.1968 3.7875 2.90859 3.34922 3.34922ZM8.65078 8.65078C9.09141 8.2125 9.80391 8.2125 10.2422 8.65078C10.6828 9.09141 10.6828 9.80391 10.2422 10.2422C9.80391 10.6828 9.09141 10.6828 8.65078 10.2422C8.2125 9.80391 8.2125 9.09141 8.65078 8.65078Z" fill="#FF5C00"/>
</svg>
