<svg width="12" height="12" viewBox="0 0 12 12" fill="none" xmlns="http://www.w3.org/2000/svg">
<path d="M3.21429 6C3.21429 6.72422 2.54278 7.3125 1.71429 7.3125C0.885812 7.3125 0.214294 6.72422 0.214294 6C0.214294 5.27578 0.885812 4.6875 1.71429 4.6875C2.54278 4.6875 3.21429 5.27578 3.21429 6ZM7.50001 6C7.50001 6.72422 6.82769 7.3125 6.00001 7.3125C5.17233 7.3125 4.50001 6.72422 4.50001 6C4.50001 5.27578 5.17233 4.6875 6.00001 4.6875C6.82769 4.6875 7.50001 5.27578 7.50001 6ZM8.78572 6C8.78572 5.27578 9.45805 4.6875 10.2857 4.6875C11.1134 4.6875 11.7857 5.27578 11.7857 6C11.7857 6.72422 11.1134 7.3125 10.2857 7.3125C9.45805 7.3125 8.78572 6.72422 8.78572 6Z" fill="black"/>
</svg>
